<svg xmlns="http://www.w3.org/2000/svg" viewBox="0 0 256 256" role="img" aria-labelledby="title desc">
  <title id="title">SHUO Canvas mark</title>
  <desc id="desc">A spectrum S-shaped creative canvas mark with a cursor cut from its center.</desc>
  <defs>
    <linearGradient id="shuo-spectrum" x1="38" y1="20" x2="221" y2="239" gradientUnits="userSpaceOnUse">
      <stop offset="0" stop-color="#2857FF"/>
      <stop offset=".29" stop-color="#7440EF"/>
      <stop offset=".56" stop-color="#F04C9A"/>
      <stop offset=".78" stop-color="#FF704F"/>
      <stop offset="1" stop-color="#FFD45C"/>
    </linearGradient>
  </defs>
  <path
    fill="url(#shuo-spectrum)"
    fill-rule="evenodd"
    d="M96 12h62c40 0 68 23 68 57 0 22-11 39-33 53l-23 15c-7 5-7 13 1 18l22 14c22 14 32 34 25 53-8 23-31 34-63 34H83c-36 0-59-19-59-47 0-22 12-39 35-51l19-10c13-7 18-16 14-27-4-10-14-17-31-26C37 83 25 64 31 45 39 24 62 12 96 12Zm8 83c-8-1-12 4-9 13l23 77c3 10 10 10 14 1l10-26 25-6c9-2 11-8 4-14l-59-43c-3-1-5-2-8-2Z"
  />
</svg>
